<svg width="31" height="31" viewBox="0 0 31 31" fill="none" xmlns="http://www.w3.org/2000/svg">
<g id="eva:arrow-ios-forward-outline">
<path id="Vector" d="M12.9166 24.5417C12.6148 24.5423 12.3223 24.4372 12.09 24.2446C11.9592 24.1362 11.851 24.003 11.7718 23.8527C11.6926 23.7024 11.6437 23.538 11.6281 23.3688C11.6125 23.1996 11.6305 23.029 11.6809 22.8668C11.7313 22.7046 11.8133 22.5539 11.922 22.4233L17.7087 15.5L12.1287 8.56375C12.0214 8.43163 11.9413 8.27961 11.8929 8.11642C11.8446 7.95323 11.829 7.78209 11.847 7.61285C11.865 7.4436 11.9163 7.27959 11.9979 7.13022C12.0795 6.98086 12.1898 6.84909 12.3225 6.7425C12.4561 6.62491 12.6126 6.53622 12.7822 6.48198C12.9517 6.42775 13.1306 6.40914 13.3077 6.42733C13.4848 6.44553 13.6562 6.50013 13.8112 6.5877C13.9661 6.67528 14.1013 6.79395 14.2083 6.93625L20.447 14.6863C20.637 14.9174 20.7409 15.2073 20.7409 15.5065C20.7409 15.8056 20.637 16.0955 20.447 16.3267L13.9887 24.0767C13.8591 24.233 13.6945 24.3565 13.5083 24.4373C13.322 24.5181 13.1193 24.5539 12.9166 24.5417Z" fill="white"/>
</g>
</svg>
